<svg width="1500" height="201" viewBox="0 0 1500 201" fill="none" xmlns="http://www.w3.org/2000/svg">
<path fill-rule="evenodd" clip-rule="evenodd" d="M1500 193.768L1437.5 197.357C1375 200.945 1250 208.121 1125 179.415C1000 150.709 875 86.1192 750 78.9426C625 71.766 500 122.002 375 139.944C250 157.885 125 143.532 62.5 136.355L0 129.179V8.45561e-06H62.5C125 8.45561e-06 250 8.45561e-06 375 8.45561e-06C500 8.45561e-06 625 8.45561e-06 750 8.45561e-06C875 8.45561e-06 1000 8.45561e-06 1125 8.45561e-06C1250 8.45561e-06 1375 8.45561e-06 1437.5 8.45561e-06H1500V193.768Z" fill="#222222"/>
</svg>
