<svg width="1500" height="190" viewBox="0 0 1500 190" fill="none" xmlns="http://www.w3.org/2000/svg">
<path fill-rule="evenodd" clip-rule="evenodd" d="M1500 49.5652L1437 61.6812C1375 74.3478 1250 99.1304 1125 127.768C1000 156.957 875 190 750 190C625 190 500 156.957 375 140.435C250 123.913 125 123.913 62 123.913L0 123.913V4.17232e-06H62C125 4.17232e-06 250 4.17232e-06 375 4.17232e-06C500 4.17233e-06 625 4.17233e-06 750 4.17233e-06C875 4.17233e-06 1000 4.17233e-06 1125 4.17233e-06C1250 4.17233e-06 1375 4.17233e-06 1437 4.17233e-06H1500V49.5652Z" fill="#222222"/>
</svg>
