<svg width="1500" height="200" viewBox="0 0 1500 200" fill="none" xmlns="http://www.w3.org/2000/svg">
<path fill-rule="evenodd" clip-rule="evenodd" d="M0 0L62.3351 18.0929C124.67 36.6748 250.33 73.8386 375 73.8386C499.67 73.8386 625.33 36.6748 750 33.2518C874.67 29.3399 1000.33 59.1687 1125 77.7506C1249.67 96.3325 1375.33 103.667 1437.66 107.09L1500 111.002V200H1437.66C1375.33 200 1249.67 200 1125 200C1000.33 200 874.67 200 750 200C625.33 200 499.67 200 375 200C250.33 200 124.67 200 62.3351 200H0V0Z" fill="white"/>
</svg>
